<svg width="60" height="60" viewBox="0 0 60 60" fill="none" xmlns="http://www.w3.org/2000/svg">
<path d="M22.0312 26.25V41.25C22.0312 41.623 21.8831 41.9806 21.6194 42.2444C21.3556 42.5081 20.998 42.6562 20.625 42.6562C20.252 42.6562 19.8944 42.5081 19.6306 42.2444C19.3669 41.9806 19.2188 41.623 19.2188 41.25V26.25C19.2188 25.877 19.3669 25.5194 19.6306 25.2556C19.8944 24.9919 20.252 24.8438 20.625 24.8438C20.998 24.8438 21.3556 24.9919 21.6194 25.2556C21.8831 25.5194 22.0312 25.877 22.0312 26.25V26.25ZM20.625 16.4062C20.1615 16.4062 19.7083 16.5437 19.3229 16.8012C18.9375 17.0588 18.6371 17.4248 18.4597 17.8531C18.2823 18.2813 18.2359 18.7526 18.3263 19.2072C18.4167 19.6619 18.6399 20.0795 18.9677 20.4073C19.2955 20.7351 19.7131 20.9583 20.1678 21.0487C20.6224 21.1391 21.0937 21.0927 21.5219 20.9153C21.9502 20.7379 22.3162 20.4375 22.5738 20.0521C22.8313 19.6667 22.9688 19.2135 22.9688 18.75C22.9688 18.1284 22.7218 17.5323 22.2823 17.0927C21.8427 16.6532 21.2466 16.4062 20.625 16.4062ZM52.9688 10.3125V49.6875C52.9688 50.5577 52.623 51.3923 52.0077 52.0077C51.3923 52.623 50.5577 52.9688 49.6875 52.9688H10.3125C9.44226 52.9688 8.60766 52.623 7.99231 52.0077C7.37695 51.3923 7.03125 50.5577 7.03125 49.6875V10.3125C7.03125 9.44226 7.37695 8.60766 7.99231 7.99231C8.60766 7.37695 9.44226 7.03125 10.3125 7.03125H49.6875C50.5577 7.03125 51.3923 7.37695 52.0077 7.99231C52.623 8.60766 52.9688 9.44226 52.9688 10.3125V10.3125ZM50.1562 10.3125C50.1562 10.1882 50.1069 10.069 50.019 9.98104C49.931 9.89314 49.8118 9.84375 49.6875 9.84375H10.3125C10.1882 9.84375 10.069 9.89314 9.98104 9.98104C9.89314 10.069 9.84375 10.1882 9.84375 10.3125V49.6875C9.84375 49.8118 9.89314 49.931 9.98104 50.019C10.069 50.1069 10.1882 50.1562 10.3125 50.1562H49.6875C49.8118 50.1562 49.931 50.1069 50.019 50.019C50.1069 49.931 50.1562 49.8118 50.1562 49.6875V10.3125ZM34.6875 24.8438C32.798 24.8453 30.9706 25.5181 29.5312 26.7422V26.25C29.5312 25.877 29.3831 25.5194 29.1194 25.2556C28.8556 24.9919 28.498 24.8438 28.125 24.8438C27.752 24.8438 27.3944 24.9919 27.1306 25.2556C26.8669 25.5194 26.7188 25.877 26.7188 26.25V41.25C26.7188 41.623 26.8669 41.9806 27.1306 42.2444C27.3944 42.5081 27.752 42.6562 28.125 42.6562C28.498 42.6562 28.8556 42.5081 29.1194 42.2444C29.3831 41.9806 29.5312 41.623 29.5312 41.25V32.8125C29.5312 31.445 30.0745 30.1335 31.0415 29.1665C32.0085 28.1995 33.32 27.6562 34.6875 27.6562C36.055 27.6562 37.3665 28.1995 38.3335 29.1665C39.3005 30.1335 39.8438 31.445 39.8438 32.8125V41.25C39.8438 41.623 39.9919 41.9806 40.2556 42.2444C40.5194 42.5081 40.877 42.6562 41.25 42.6562C41.623 42.6562 41.9806 42.5081 42.2444 42.2444C42.5081 41.9806 42.6562 41.623 42.6562 41.25V32.8125C42.6501 30.701 41.8085 28.6777 40.3154 27.1846C38.8223 25.6915 36.799 24.8499 34.6875 24.8438V24.8438Z" fill="#727272"/>
</svg>
