<svg width="60" height="60" viewBox="0 0 60 60" fill="none" xmlns="http://www.w3.org/2000/svg">
<path d="M30 19.6875C27.9604 19.6875 25.9666 20.2923 24.2707 21.4255C22.5748 22.5586 21.253 24.1692 20.4725 26.0536C19.692 27.9379 19.4877 30.0114 19.8857 32.0119C20.2836 34.0123 21.2657 35.8498 22.708 37.292C24.1502 38.7343 25.9877 39.7164 27.9881 40.1143C29.9886 40.5123 32.0621 40.308 33.9464 39.5275C35.8308 38.747 37.4414 37.4252 38.5745 35.7293C39.7077 34.0334 40.3125 32.0396 40.3125 30C40.3125 27.265 39.226 24.6419 37.292 22.708C35.3581 20.774 32.735 19.6875 30 19.6875ZM30 38.4375C28.3312 38.4375 26.6999 37.9426 25.3124 37.0155C23.9248 36.0884 22.8434 34.7706 22.2048 33.2289C21.5662 31.6871 21.3991 29.9906 21.7246 28.3539C22.0502 26.7172 22.8538 25.2138 24.0338 24.0338C25.2138 22.8538 26.7172 22.0502 28.3539 21.7246C29.9906 21.3991 31.6871 21.5662 33.2289 22.2048C34.7706 22.8434 36.0884 23.9248 37.0155 25.3124C37.9426 26.6999 38.4375 28.3312 38.4375 30C38.4375 32.2378 37.5486 34.3839 35.9662 35.9662C34.3839 37.5486 32.2378 38.4375 30 38.4375V38.4375ZM40.3125 7.5H19.6875C16.4552 7.5 13.3552 8.78404 11.0696 11.0696C8.78404 13.3552 7.5 16.4552 7.5 19.6875V40.3125C7.5 41.913 7.81524 43.4978 8.42772 44.9765C9.0402 46.4551 9.93792 47.7986 11.0696 48.9304C13.3552 51.216 16.4552 52.5 19.6875 52.5H40.3125C41.913 52.5 43.4978 52.1848 44.9765 51.5723C46.4551 50.9598 47.7986 50.0621 48.9304 48.9304C50.0621 47.7986 50.9598 46.4551 51.5723 44.9765C52.1848 43.4978 52.5 41.913 52.5 40.3125V19.6875C52.5 18.087 52.1848 16.5022 51.5723 15.0235C50.9598 13.5449 50.0621 12.2013 48.9304 11.0696C47.7986 9.93792 46.4551 9.0402 44.9765 8.42772C43.4978 7.81524 41.913 7.5 40.3125 7.5V7.5ZM50.625 40.3125C50.625 43.0475 49.5385 45.6706 47.6045 47.6045C45.6706 49.5385 43.0475 50.625 40.3125 50.625H19.6875C16.9525 50.625 14.3294 49.5385 12.3955 47.6045C10.4615 45.6706 9.375 43.0475 9.375 40.3125V19.6875C9.375 16.9525 10.4615 14.3294 12.3955 12.3955C14.3294 10.4615 16.9525 9.375 19.6875 9.375H40.3125C43.0475 9.375 45.6706 10.4615 47.6045 12.3955C49.5385 14.3294 50.625 16.9525 50.625 19.6875V40.3125ZM44.0625 17.8125C44.0625 18.1833 43.9525 18.5459 43.7465 18.8542C43.5405 19.1625 43.2476 19.4029 42.905 19.5448C42.5624 19.6867 42.1854 19.7238 41.8217 19.6515C41.458 19.5791 41.1239 19.4005 40.8617 19.1383C40.5994 18.8761 40.4209 18.542 40.3485 18.1783C40.2762 17.8146 40.3133 17.4376 40.4552 17.095C40.5971 16.7524 40.8375 16.4595 41.1458 16.2535C41.4541 16.0475 41.8167 15.9375 42.1875 15.9375C42.6848 15.9375 43.1617 16.135 43.5133 16.4867C43.865 16.8383 44.0625 17.3152 44.0625 17.8125Z" fill="#727272"/>
</svg>
