<svg width="418" height="240" viewBox="0 0 418 240" fill="none" xmlns="http://www.w3.org/2000/svg">
<circle cx="221.971" cy="36.0294" r="35.5294" stroke="#A5A5A5"/>
<circle cx="196.029" cy="36.0294" r="35.5294" stroke="#A5A5A5"/>
<circle cx="209.721" cy="36.0296" r="7.20588" fill="#A4A4A4"/>
<path d="M63.7969 166.059H71.9531V137.371C71.9531 134.59 72.4688 132.168 73.5 130.105C74.5625 128.043 76.0469 126.449 77.9531 125.324C79.8594 124.168 82.0938 123.59 84.6562 123.59C88.4062 123.59 91.2031 124.652 93.0469 126.777C94.9219 128.871 95.8594 131.902 95.8594 135.871V166.059H104.016V134.418C104.016 128.855 102.531 124.465 99.5625 121.246C96.625 117.996 92.4844 116.371 87.1406 116.371C83.4531 116.371 80.3594 117.121 77.8594 118.621C75.3594 120.09 73.4531 121.965 72.1406 124.246H71.9531V117.309H63.7969V166.059ZM130.266 166.996C131.078 166.996 131.875 166.949 132.656 166.855C133.469 166.793 134.125 166.73 134.625 166.668V160.059C134.281 160.09 133.875 160.137 133.406 160.199C132.969 160.23 132.5 160.246 132 160.246C129.812 160.246 128.156 159.793 127.031 158.887C125.906 157.949 125.344 156.184 125.344 153.59V124.059H134.625V117.309H125.344V104.137H116.906V117.309H109.781V124.059H116.906V153.637C116.906 158.293 118.016 161.684 120.234 163.809C122.453 165.934 125.797 166.996 130.266 166.996ZM143.391 166.059H151.547V135.965C151.547 133.496 151.969 131.387 152.812 129.637C153.688 127.855 154.906 126.496 156.469 125.559C158.062 124.621 159.906 124.152 162 124.152C163 124.152 163.891 124.199 164.672 124.293C165.484 124.387 166.047 124.496 166.359 124.621V116.699C166.047 116.637 165.594 116.574 165 116.512C164.438 116.418 163.797 116.371 163.078 116.371C160.328 116.371 157.953 117.199 155.953 118.855C153.953 120.512 152.547 122.746 151.734 125.559H151.547V117.309H143.391V166.059ZM190.875 166.996C195.375 166.996 199.312 165.965 202.688 163.902C206.062 161.84 208.688 158.918 210.562 155.137C212.469 151.355 213.422 146.871 213.422 141.684V141.59C213.422 136.402 212.469 131.934 210.562 128.184C208.688 124.402 206.047 121.496 202.641 119.465C199.266 117.402 195.328 116.371 190.828 116.371C186.359 116.371 182.422 117.402 179.016 119.465C175.641 121.496 173 124.402 171.094 128.184C169.219 131.934 168.281 136.402 168.281 141.59V141.684C168.281 146.84 169.219 151.324 171.094 155.137C173 158.918 175.641 161.84 179.016 163.902C182.422 165.965 186.375 166.996 190.875 166.996ZM190.922 159.777C188.047 159.777 185.531 159.074 183.375 157.668C181.25 156.23 179.594 154.168 178.406 151.48C177.219 148.762 176.625 145.496 176.625 141.684V141.59C176.625 137.777 177.219 134.543 178.406 131.887C179.594 129.199 181.25 127.152 183.375 125.746C185.531 124.309 188.016 123.59 190.828 123.59C193.703 123.59 196.203 124.293 198.328 125.699C200.484 127.105 202.141 129.152 203.297 131.84C204.484 134.527 205.078 137.777 205.078 141.59V141.684C205.078 145.496 204.484 148.762 203.297 151.48C202.141 154.168 200.5 156.23 198.375 157.668C196.281 159.074 193.797 159.777 190.922 159.777ZM221.672 182.465H229.828V157.902H230.016C231.047 159.777 232.328 161.402 233.859 162.777C235.422 164.121 237.203 165.168 239.203 165.918C241.203 166.637 243.344 166.996 245.625 166.996C249.719 166.996 253.297 165.965 256.359 163.902C259.453 161.809 261.859 158.871 263.578 155.09C265.328 151.309 266.203 146.855 266.203 141.73V141.684C266.203 136.559 265.344 132.105 263.625 128.324C261.906 124.512 259.484 121.574 256.359 119.512C253.266 117.418 249.641 116.371 245.484 116.371C243.172 116.371 241.031 116.746 239.062 117.496C237.094 118.246 235.344 119.309 233.812 120.684C232.312 122.027 231.047 123.652 230.016 125.559H229.828V117.309H221.672V182.465ZM243.891 159.777C241.141 159.777 238.703 159.027 236.578 157.527C234.484 156.027 232.828 153.934 231.609 151.246C230.391 148.527 229.781 145.355 229.781 141.73V141.684C229.781 138.027 230.375 134.855 231.562 132.168C232.781 129.449 234.453 127.34 236.578 125.84C238.703 124.34 241.141 123.59 243.891 123.59C246.766 123.59 249.25 124.324 251.344 125.793C253.438 127.23 255.047 129.309 256.172 132.027C257.297 134.715 257.859 137.934 257.859 141.684V141.73C257.859 145.418 257.297 148.621 256.172 151.34C255.047 154.027 253.438 156.105 251.344 157.574C249.25 159.043 246.766 159.777 243.891 159.777ZM277.266 182.465C280.203 182.465 282.688 181.996 284.719 181.059C286.75 180.121 288.484 178.668 289.922 176.699C291.359 174.73 292.656 172.199 293.812 169.105L312.844 117.309H304.266L290.156 159.777L291.891 157.902H289.453L291.188 159.777L277.125 117.309H268.406L286.5 166.105L285.516 168.871C284.547 171.621 283.281 173.449 281.719 174.355C280.188 175.262 278.125 175.715 275.531 175.715C275.031 175.715 274.547 175.684 274.078 175.621C273.641 175.559 273.25 175.496 272.906 175.434V182.09C273.438 182.184 274.094 182.262 274.875 182.324C275.688 182.418 276.484 182.465 277.266 182.465Z" fill="#727272"/>
<path d="M325.627 166.48C327.49 166.48 329.143 166.17 330.584 165.549C332.037 164.928 333.168 164.072 333.977 162.982C334.797 161.881 335.207 160.615 335.207 159.186V159.15C335.207 158.084 334.967 157.111 334.486 156.232C334.018 155.342 333.361 154.592 332.518 153.982C331.686 153.361 330.713 152.934 329.6 152.699V152.611C331.029 152.201 332.166 151.504 333.01 150.52C333.854 149.523 334.275 148.352 334.275 147.004V146.969C334.275 145.68 333.906 144.531 333.168 143.523C332.43 142.516 331.404 141.725 330.092 141.15C328.791 140.564 327.303 140.271 325.627 140.271C323.939 140.271 322.439 140.564 321.127 141.15C319.826 141.725 318.807 142.516 318.068 143.523C317.33 144.531 316.961 145.68 316.961 146.969V147.004C316.961 148.352 317.383 149.523 318.227 150.52C319.082 151.504 320.219 152.201 321.637 152.611V152.699C320.535 152.934 319.562 153.361 318.719 153.982C317.875 154.592 317.213 155.342 316.732 156.232C316.264 157.111 316.029 158.084 316.029 159.15V159.186C316.029 160.615 316.439 161.881 317.26 162.982C318.08 164.072 319.211 164.928 320.652 165.549C322.094 166.17 323.752 166.48 325.627 166.48ZM325.627 163.316C324.549 163.316 323.594 163.129 322.762 162.754C321.93 162.379 321.273 161.863 320.793 161.207C320.324 160.539 320.09 159.777 320.09 158.922V158.887C320.09 158.031 320.324 157.27 320.793 156.602C321.262 155.934 321.912 155.412 322.744 155.037C323.576 154.65 324.537 154.457 325.627 154.457C326.705 154.457 327.66 154.65 328.492 155.037C329.324 155.412 329.975 155.934 330.443 156.602C330.912 157.27 331.146 158.031 331.146 158.887V158.922C331.146 159.777 330.906 160.539 330.426 161.207C329.957 161.863 329.307 162.379 328.475 162.754C327.654 163.129 326.705 163.316 325.627 163.316ZM325.627 151.275C324.678 151.275 323.846 151.111 323.131 150.783C322.428 150.443 321.871 149.98 321.461 149.395C321.062 148.797 320.863 148.117 320.863 147.355V147.32C320.863 146.547 321.062 145.867 321.461 145.281C321.871 144.695 322.434 144.238 323.148 143.91C323.863 143.57 324.689 143.4 325.627 143.4C326.553 143.4 327.373 143.57 328.088 143.91C328.803 144.238 329.359 144.695 329.758 145.281C330.168 145.867 330.373 146.547 330.373 147.32V147.355C330.373 148.117 330.168 148.797 329.758 149.395C329.359 149.98 328.803 150.443 328.088 150.783C327.385 151.111 326.564 151.275 325.627 151.275ZM348.25 166.48C350.031 166.48 351.619 166.105 353.014 165.355C354.408 164.605 355.504 163.58 356.301 162.279C357.109 160.967 357.514 159.467 357.514 157.779V157.744C357.514 156.15 357.15 154.727 356.424 153.473C355.709 152.207 354.725 151.217 353.471 150.502C352.217 149.775 350.775 149.412 349.146 149.412C347.998 149.412 346.961 149.594 346.035 149.957C345.109 150.32 344.312 150.812 343.645 151.434C342.977 152.043 342.473 152.729 342.133 153.49H341.764V157.797H342.818V157.779C342.818 156.783 343.053 155.898 343.521 155.125C344.002 154.34 344.652 153.725 345.473 153.279C346.305 152.834 347.23 152.611 348.25 152.611C349.27 152.611 350.184 152.84 350.992 153.297C351.801 153.742 352.434 154.357 352.891 155.143C353.348 155.928 353.576 156.83 353.576 157.85V157.885C353.576 158.869 353.336 159.76 352.855 160.557C352.375 161.354 351.725 161.986 350.904 162.455C350.096 162.924 349.193 163.158 348.197 163.158C347.189 163.158 346.275 162.924 345.455 162.455C344.646 161.975 344.002 161.33 343.521 160.521C343.053 159.701 342.818 158.793 342.818 157.797L342.062 153.613C342.062 153.473 342.062 153.338 342.062 153.209C342.062 153.068 342.068 152.934 342.08 152.805C342.127 151.117 342.367 149.582 342.801 148.199C343.246 146.805 343.92 145.686 344.822 144.842C345.736 143.998 346.914 143.576 348.355 143.576C349.164 143.576 349.885 143.705 350.518 143.963C351.15 144.209 351.689 144.566 352.135 145.035C352.58 145.492 352.914 146.037 353.137 146.67L353.207 146.846H357.162L357.127 146.635C356.857 145.381 356.318 144.273 355.51 143.312C354.701 142.352 353.688 141.607 352.469 141.08C351.262 140.541 349.902 140.271 348.391 140.271C346.281 140.271 344.465 140.805 342.941 141.871C341.43 142.926 340.27 144.461 339.461 146.477C338.664 148.48 338.266 150.895 338.266 153.719V153.754C338.266 156.039 338.535 157.99 339.074 159.607C339.613 161.213 340.352 162.525 341.289 163.545C342.238 164.553 343.305 165.297 344.488 165.777C345.684 166.246 346.938 166.48 348.25 166.48Z" fill="#727272"/>
<path d="M8.55469 229.059H11.875L18.4375 206.48H18.5156L25.0781 229.059H28.3984L36.0742 200.875H32.4023L26.7188 224.02H26.6406L20.2539 200.875H16.6992L10.3125 224.02H10.2344L4.55078 200.875H0.878906L8.55469 229.059ZM45.3711 229.449C46.4779 229.449 47.5065 229.299 48.457 229C49.4076 228.688 50.2539 228.258 50.9961 227.711C51.7383 227.151 52.3438 226.507 52.8125 225.777C53.2943 225.048 53.6198 224.267 53.7891 223.434L53.8281 223.238H50.4883L50.4297 223.414C50.2344 224 49.9089 224.521 49.4531 224.977C48.9974 225.432 48.431 225.79 47.7539 226.051C47.0768 226.311 46.3086 226.441 45.4492 226.441C44.2253 226.441 43.1641 226.174 42.2656 225.641C41.3672 225.094 40.6706 224.312 40.1758 223.297C39.694 222.281 39.4531 221.057 39.4531 219.625V218.316C39.4531 216.806 39.7005 215.536 40.1953 214.508C40.6901 213.466 41.3672 212.685 42.2266 212.164C43.0859 211.63 44.056 211.363 45.1367 211.363C46.2174 211.363 47.1745 211.617 48.0078 212.125C48.8411 212.62 49.4922 213.382 49.9609 214.41C50.4427 215.439 50.6836 216.741 50.6836 218.316V219.625L52.4023 217.164H37.7148V219.82H54.082V218.57C54.082 216.539 53.724 214.755 53.0078 213.219C52.2917 211.682 51.263 210.491 49.9219 209.645C48.5938 208.785 47.0052 208.355 45.1562 208.355C43.3073 208.355 41.6992 208.805 40.332 209.703C38.9648 210.589 37.9036 211.832 37.1484 213.434C36.3932 215.022 36.0156 216.865 36.0156 218.961V218.98C36.0156 221.103 36.3867 222.952 37.1289 224.527C37.8841 226.09 38.9583 227.301 40.3516 228.16C41.7578 229.02 43.431 229.449 45.3711 229.449ZM57.6953 229.059H61.0938V200.875H57.6953V229.059ZM74.1016 229.449C75.638 229.449 77.0052 229.15 78.2031 228.551C79.4141 227.939 80.3971 227.118 81.1523 226.09C81.9206 225.048 82.3958 223.883 82.5781 222.594L82.5977 222.457H79.2578L79.2188 222.613C78.9323 223.746 78.3529 224.671 77.4805 225.387C76.6211 226.09 75.4948 226.441 74.1016 226.441C72.9297 226.441 71.8945 226.142 70.9961 225.543C70.1107 224.944 69.4141 224.085 68.9062 222.965C68.4115 221.845 68.1641 220.497 68.1641 218.922V218.902C68.1641 217.366 68.4115 216.038 68.9062 214.918C69.401 213.785 70.0911 212.913 70.9766 212.301C71.862 211.676 72.8906 211.363 74.0625 211.363C75.5599 211.363 76.7253 211.747 77.5586 212.516C78.4049 213.284 78.9518 214.176 79.1992 215.191L79.2383 215.348H82.5586L82.5391 215.191C82.3958 214.033 81.9727 212.932 81.2695 211.891C80.5794 210.849 79.6289 210.003 78.418 209.352C77.207 208.688 75.7552 208.355 74.0625 208.355C72.1875 208.355 70.5469 208.785 69.1406 209.645C67.7344 210.504 66.6406 211.721 65.8594 213.297C65.0781 214.872 64.6875 216.728 64.6875 218.863V218.883C64.6875 221.031 65.0716 222.9 65.8398 224.488C66.6081 226.064 67.6953 227.288 69.1016 228.16C70.5208 229.02 72.1875 229.449 74.1016 229.449ZM94.1406 229.449C96.0156 229.449 97.6562 229.02 99.0625 228.16C100.469 227.301 101.562 226.083 102.344 224.508C103.138 222.932 103.535 221.064 103.535 218.902V218.863C103.535 216.702 103.138 214.84 102.344 213.277C101.562 211.702 100.462 210.491 99.043 209.645C97.6367 208.785 95.9961 208.355 94.1211 208.355C92.2591 208.355 90.6185 208.785 89.1992 209.645C87.793 210.491 86.6927 211.702 85.8984 213.277C85.1172 214.84 84.7266 216.702 84.7266 218.863V218.902C84.7266 221.051 85.1172 222.919 85.8984 224.508C86.6927 226.083 87.793 227.301 89.1992 228.16C90.6185 229.02 92.2656 229.449 94.1406 229.449ZM94.1602 226.441C92.9622 226.441 91.9141 226.148 91.0156 225.562C90.1302 224.964 89.4401 224.104 88.9453 222.984C88.4505 221.852 88.2031 220.491 88.2031 218.902V218.863C88.2031 217.275 88.4505 215.927 88.9453 214.82C89.4401 213.701 90.1302 212.848 91.0156 212.262C91.9141 211.663 92.9492 211.363 94.1211 211.363C95.319 211.363 96.3607 211.656 97.2461 212.242C98.1445 212.828 98.8346 213.681 99.3164 214.801C99.8112 215.921 100.059 217.275 100.059 218.863V218.902C100.059 220.491 99.8112 221.852 99.3164 222.984C98.8346 224.104 98.151 224.964 97.2656 225.562C96.3932 226.148 95.3581 226.441 94.1602 226.441ZM106.973 229.059H110.371V216.324C110.371 215.374 110.573 214.527 110.977 213.785C111.38 213.043 111.927 212.457 112.617 212.027C113.32 211.585 114.121 211.363 115.02 211.363C116.283 211.363 117.292 211.734 118.047 212.477C118.802 213.219 119.18 214.208 119.18 215.445V229.059H122.578V216.148C122.578 215.224 122.773 214.404 123.164 213.688C123.555 212.958 124.095 212.392 124.785 211.988C125.475 211.572 126.27 211.363 127.168 211.363C128.509 211.363 129.544 211.76 130.273 212.555C131.016 213.336 131.387 214.423 131.387 215.816V229.059H134.785V215.035C134.785 213.681 134.512 212.509 133.965 211.52C133.418 210.517 132.65 209.742 131.66 209.195C130.671 208.635 129.505 208.355 128.164 208.355C127.214 208.355 126.322 208.512 125.488 208.824C124.668 209.137 123.939 209.586 123.301 210.172C122.676 210.745 122.174 211.441 121.797 212.262H121.719C121.432 211.428 121.016 210.725 120.469 210.152C119.922 209.566 119.271 209.124 118.516 208.824C117.773 208.512 116.94 208.355 116.016 208.355C114.714 208.355 113.574 208.668 112.598 209.293C111.621 209.905 110.905 210.712 110.449 211.715H110.371V208.746H106.973V229.059ZM147.48 229.449C148.587 229.449 149.616 229.299 150.566 229C151.517 228.688 152.363 228.258 153.105 227.711C153.848 227.151 154.453 226.507 154.922 225.777C155.404 225.048 155.729 224.267 155.898 223.434L155.938 223.238H152.598L152.539 223.414C152.344 224 152.018 224.521 151.562 224.977C151.107 225.432 150.54 225.79 149.863 226.051C149.186 226.311 148.418 226.441 147.559 226.441C146.335 226.441 145.273 226.174 144.375 225.641C143.477 225.094 142.78 224.312 142.285 223.297C141.803 222.281 141.562 221.057 141.562 219.625V218.316C141.562 216.806 141.81 215.536 142.305 214.508C142.799 213.466 143.477 212.685 144.336 212.164C145.195 211.63 146.165 211.363 147.246 211.363C148.327 211.363 149.284 211.617 150.117 212.125C150.951 212.62 151.602 213.382 152.07 214.41C152.552 215.439 152.793 216.741 152.793 218.316V219.625L154.512 217.164H139.824V219.82H156.191V218.57C156.191 216.539 155.833 214.755 155.117 213.219C154.401 211.682 153.372 210.491 152.031 209.645C150.703 208.785 149.115 208.355 147.266 208.355C145.417 208.355 143.809 208.805 142.441 209.703C141.074 210.589 140.013 211.832 139.258 213.434C138.503 215.022 138.125 216.865 138.125 218.961V218.98C138.125 221.103 138.496 222.952 139.238 224.527C139.993 226.09 141.068 227.301 142.461 228.16C143.867 229.02 145.54 229.449 147.48 229.449ZM174.434 229.449C174.772 229.449 175.104 229.43 175.43 229.391C175.768 229.365 176.042 229.339 176.25 229.312V226.559C176.107 226.572 175.938 226.591 175.742 226.617C175.56 226.63 175.365 226.637 175.156 226.637C174.245 226.637 173.555 226.448 173.086 226.07C172.617 225.68 172.383 224.944 172.383 223.863V211.559H176.25V208.746H172.383V203.258H168.867V208.746H165.898V211.559H168.867V223.883C168.867 225.823 169.329 227.236 170.254 228.121C171.178 229.007 172.572 229.449 174.434 229.449ZM187.734 229.449C189.609 229.449 191.25 229.02 192.656 228.16C194.062 227.301 195.156 226.083 195.938 224.508C196.732 222.932 197.129 221.064 197.129 218.902V218.863C197.129 216.702 196.732 214.84 195.938 213.277C195.156 211.702 194.056 210.491 192.637 209.645C191.23 208.785 189.59 208.355 187.715 208.355C185.853 208.355 184.212 208.785 182.793 209.645C181.387 210.491 180.286 211.702 179.492 213.277C178.711 214.84 178.32 216.702 178.32 218.863V218.902C178.32 221.051 178.711 222.919 179.492 224.508C180.286 226.083 181.387 227.301 182.793 228.16C184.212 229.02 185.859 229.449 187.734 229.449ZM187.754 226.441C186.556 226.441 185.508 226.148 184.609 225.562C183.724 224.964 183.034 224.104 182.539 222.984C182.044 221.852 181.797 220.491 181.797 218.902V218.863C181.797 217.275 182.044 215.927 182.539 214.82C183.034 213.701 183.724 212.848 184.609 212.262C185.508 211.663 186.543 211.363 187.715 211.363C188.913 211.363 189.954 211.656 190.84 212.242C191.738 212.828 192.428 213.681 192.91 214.801C193.405 215.921 193.652 217.275 193.652 218.863V218.902C193.652 220.491 193.405 221.852 192.91 222.984C192.428 224.104 191.745 224.964 190.859 225.562C189.987 226.148 188.952 226.441 187.754 226.441ZM215.371 229.449C215.71 229.449 216.042 229.43 216.367 229.391C216.706 229.365 216.979 229.339 217.188 229.312V226.559C217.044 226.572 216.875 226.591 216.68 226.617C216.497 226.63 216.302 226.637 216.094 226.637C215.182 226.637 214.492 226.448 214.023 226.07C213.555 225.68 213.32 224.944 213.32 223.863V211.559H217.188V208.746H213.32V203.258H209.805V208.746H206.836V211.559H209.805V223.883C209.805 225.823 210.267 227.236 211.191 228.121C212.116 229.007 213.509 229.449 215.371 229.449ZM221.016 229.059H224.414V217.203C224.414 216.044 224.629 215.029 225.059 214.156C225.501 213.284 226.113 212.6 226.895 212.105C227.689 211.611 228.607 211.363 229.648 211.363C231.237 211.363 232.474 211.878 233.359 212.906C234.245 213.935 234.688 215.367 234.688 217.203V229.059H238.086V216.617C238.086 214.977 237.78 213.538 237.168 212.301C236.556 211.064 235.703 210.1 234.609 209.41C233.529 208.707 232.266 208.355 230.82 208.355C229.31 208.355 228.014 208.674 226.934 209.312C225.853 209.951 225.039 210.842 224.492 211.988H224.414V200.875H221.016V229.059ZM250.762 229.449C251.868 229.449 252.897 229.299 253.848 229C254.798 228.688 255.645 228.258 256.387 227.711C257.129 227.151 257.734 226.507 258.203 225.777C258.685 225.048 259.01 224.267 259.18 223.434L259.219 223.238H255.879L255.82 223.414C255.625 224 255.299 224.521 254.844 224.977C254.388 225.432 253.822 225.79 253.145 226.051C252.467 226.311 251.699 226.441 250.84 226.441C249.616 226.441 248.555 226.174 247.656 225.641C246.758 225.094 246.061 224.312 245.566 223.297C245.085 222.281 244.844 221.057 244.844 219.625V218.316C244.844 216.806 245.091 215.536 245.586 214.508C246.081 213.466 246.758 212.685 247.617 212.164C248.477 211.63 249.447 211.363 250.527 211.363C251.608 211.363 252.565 211.617 253.398 212.125C254.232 212.62 254.883 213.382 255.352 214.41C255.833 215.439 256.074 216.741 256.074 218.316V219.625L257.793 217.164H243.105V219.82H259.473V218.57C259.473 216.539 259.115 214.755 258.398 213.219C257.682 211.682 256.654 210.491 255.312 209.645C253.984 208.785 252.396 208.355 250.547 208.355C248.698 208.355 247.09 208.805 245.723 209.703C244.355 210.589 243.294 211.832 242.539 213.434C241.784 215.022 241.406 216.865 241.406 218.961V218.98C241.406 221.103 241.777 222.952 242.52 224.527C243.275 226.09 244.349 227.301 245.742 228.16C247.148 229.02 248.822 229.449 250.762 229.449ZM355.273 229.527C357.422 229.527 359.271 229.195 360.82 228.531C362.383 227.867 363.581 226.923 364.414 225.699C365.26 224.475 365.684 223.03 365.684 221.363V221.344C365.684 219.195 365.039 217.503 363.75 216.266C362.461 215.016 360.371 214.072 357.48 213.434L354.355 212.75C352.52 212.346 351.165 211.773 350.293 211.031C349.421 210.289 348.984 209.345 348.984 208.199V208.18C348.984 207.268 349.238 206.474 349.746 205.797C350.267 205.12 350.996 204.592 351.934 204.215C352.871 203.837 353.965 203.648 355.215 203.648C356.413 203.648 357.461 203.831 358.359 204.195C359.271 204.56 360.007 205.081 360.566 205.758C361.126 206.435 361.478 207.255 361.621 208.219L361.66 208.492H365.176L365.156 208.199C365.052 206.663 364.564 205.309 363.691 204.137C362.832 202.965 361.68 202.053 360.234 201.402C358.789 200.738 357.148 200.406 355.312 200.406C353.385 200.406 351.673 200.745 350.176 201.422C348.691 202.086 347.526 203.01 346.68 204.195C345.833 205.367 345.404 206.728 345.391 208.277V208.297C345.391 210.354 346.048 212.021 347.363 213.297C348.691 214.56 350.729 215.497 353.477 216.109L356.602 216.793C358.542 217.223 359.941 217.809 360.801 218.551C361.66 219.293 362.09 220.283 362.09 221.52V221.539C362.09 222.503 361.816 223.342 361.27 224.059C360.736 224.775 359.974 225.328 358.984 225.719C357.995 226.096 356.823 226.285 355.469 226.285C354.115 226.285 352.917 226.103 351.875 225.738C350.846 225.361 350.02 224.833 349.395 224.156C348.77 223.466 348.385 222.652 348.242 221.715L348.203 221.441H344.688L344.707 221.715C344.824 223.316 345.332 224.703 346.23 225.875C347.142 227.047 348.366 227.952 349.902 228.59C351.452 229.215 353.242 229.527 355.273 229.527ZM369.492 229.059H372.891V208.746H369.492V229.059ZM371.191 205.309C371.79 205.309 372.292 205.1 372.695 204.684C373.112 204.267 373.32 203.766 373.32 203.18C373.32 202.581 373.112 202.079 372.695 201.676C372.292 201.259 371.79 201.051 371.191 201.051C370.605 201.051 370.104 201.259 369.688 201.676C369.271 202.079 369.062 202.581 369.062 203.18C369.062 203.766 369.271 204.267 369.688 204.684C370.104 205.1 370.605 205.309 371.191 205.309ZM385.156 229.449C386.615 229.449 387.891 229.111 388.984 228.434C390.091 227.743 390.964 226.806 391.602 225.621H391.68V229.059H395.078V200.875H391.68V212.145H391.602C390.964 210.973 390.078 210.048 388.945 209.371C387.812 208.694 386.53 208.355 385.098 208.355C383.405 208.355 381.914 208.792 380.625 209.664C379.336 210.523 378.327 211.741 377.598 213.316C376.882 214.892 376.523 216.747 376.523 218.883V218.902C376.523 221.038 376.882 222.9 377.598 224.488C378.314 226.064 379.316 227.288 380.605 228.16C381.908 229.02 383.424 229.449 385.156 229.449ZM385.82 226.441C384.622 226.441 383.587 226.142 382.715 225.543C381.842 224.931 381.172 224.059 380.703 222.926C380.234 221.793 380 220.452 380 218.902V218.883C380 217.333 380.234 215.999 380.703 214.879C381.172 213.759 381.842 212.893 382.715 212.281C383.587 211.669 384.622 211.363 385.82 211.363C386.966 211.363 387.975 211.676 388.848 212.301C389.733 212.926 390.43 213.805 390.938 214.938C391.445 216.057 391.699 217.372 391.699 218.883V218.902C391.699 220.413 391.445 221.734 390.938 222.867C390.443 224 389.753 224.879 388.867 225.504C387.982 226.129 386.966 226.441 385.82 226.441ZM408.027 229.449C409.134 229.449 410.163 229.299 411.113 229C412.064 228.688 412.91 228.258 413.652 227.711C414.395 227.151 415 226.507 415.469 225.777C415.951 225.048 416.276 224.267 416.445 223.434L416.484 223.238H413.145L413.086 223.414C412.891 224 412.565 224.521 412.109 224.977C411.654 225.432 411.087 225.79 410.41 226.051C409.733 226.311 408.965 226.441 408.105 226.441C406.882 226.441 405.82 226.174 404.922 225.641C404.023 225.094 403.327 224.312 402.832 223.297C402.35 222.281 402.109 221.057 402.109 219.625V218.316C402.109 216.806 402.357 215.536 402.852 214.508C403.346 213.466 404.023 212.685 404.883 212.164C405.742 211.63 406.712 211.363 407.793 211.363C408.874 211.363 409.831 211.617 410.664 212.125C411.497 212.62 412.148 213.382 412.617 214.41C413.099 215.439 413.34 216.741 413.34 218.316V219.625L415.059 217.164H400.371V219.82H416.738V218.57C416.738 216.539 416.38 214.755 415.664 213.219C414.948 211.682 413.919 210.491 412.578 209.645C411.25 208.785 409.661 208.355 407.812 208.355C405.964 208.355 404.355 208.805 402.988 209.703C401.621 210.589 400.56 211.832 399.805 213.434C399.049 215.022 398.672 216.865 398.672 218.961V218.98C398.672 221.103 399.043 222.952 399.785 224.527C400.54 226.09 401.615 227.301 403.008 228.16C404.414 229.02 406.087 229.449 408.027 229.449Z" fill="#727272"/>
<path d="M271.641 229.059H281.113C283.913 229.059 286.302 228.505 288.281 227.398C290.26 226.279 291.777 224.664 292.832 222.555C293.887 220.445 294.414 217.913 294.414 214.957V214.918C294.414 211.962 293.88 209.443 292.812 207.359C291.758 205.263 290.241 203.661 288.262 202.555C286.283 201.435 283.9 200.875 281.113 200.875H271.641V229.059ZM275.156 225.895V204.039H280.879C283.014 204.039 284.818 204.462 286.289 205.309C287.773 206.142 288.9 207.372 289.668 209C290.436 210.628 290.82 212.613 290.82 214.957V214.996C290.82 217.327 290.436 219.306 289.668 220.934C288.9 222.548 287.773 223.779 286.289 224.625C284.818 225.471 283.014 225.895 280.879 225.895H275.156ZM306.621 229.449C307.728 229.449 308.757 229.299 309.707 229C310.658 228.688 311.504 228.258 312.246 227.711C312.988 227.151 313.594 226.507 314.062 225.777C314.544 225.048 314.87 224.267 315.039 223.434L315.078 223.238H311.738L311.68 223.414C311.484 224 311.159 224.521 310.703 224.977C310.247 225.432 309.681 225.79 309.004 226.051C308.327 226.311 307.559 226.441 306.699 226.441C305.475 226.441 304.414 226.174 303.516 225.641C302.617 225.094 301.921 224.312 301.426 223.297C300.944 222.281 300.703 221.057 300.703 219.625V218.316C300.703 216.806 300.951 215.536 301.445 214.508C301.94 213.466 302.617 212.685 303.477 212.164C304.336 211.63 305.306 211.363 306.387 211.363C307.467 211.363 308.424 211.617 309.258 212.125C310.091 212.62 310.742 213.382 311.211 214.41C311.693 215.439 311.934 216.741 311.934 218.316V219.625L313.652 217.164H298.965V219.82H315.332V218.57C315.332 216.539 314.974 214.755 314.258 213.219C313.542 211.682 312.513 210.491 311.172 209.645C309.844 208.785 308.255 208.355 306.406 208.355C304.557 208.355 302.949 208.805 301.582 209.703C300.215 210.589 299.154 211.832 298.398 213.434C297.643 215.022 297.266 216.865 297.266 218.961V218.98C297.266 221.103 297.637 222.952 298.379 224.527C299.134 226.09 300.208 227.301 301.602 228.16C303.008 229.02 304.681 229.449 306.621 229.449ZM323.711 229.059H327.188L334.648 208.746H331.113L325.488 225.445H325.41L319.805 208.746H316.23L323.711 229.059Z" fill="#101010"/>
</svg>
