<svg width="96" height="15" viewBox="0 0 96 15" fill="none" xmlns="http://www.w3.org/2000/svg">
<path d="M24.3828 9.25781C24.3828 10.1172 24.0176 10.8164 23.2871 11.3555C22.5605 11.8906 21.5723 12.1582 20.3223 12.1582C19.5996 12.1582 18.9688 12.0957 18.4297 11.9707C17.8945 11.8418 17.3926 11.6797 16.9238 11.4844V9.39258H17.1699C17.6348 9.76367 18.1543 10.0488 18.7285 10.248C19.3066 10.4473 19.8613 10.5469 20.3926 10.5469C20.5293 10.5469 20.709 10.5352 20.9316 10.5117C21.1543 10.4883 21.3359 10.4492 21.4766 10.3945C21.6484 10.3242 21.7891 10.2363 21.8984 10.1309C22.0117 10.0254 22.0684 9.86914 22.0684 9.66211C22.0684 9.4707 21.9863 9.30664 21.8223 9.16992C21.6621 9.0293 21.4258 8.92188 21.1133 8.84766C20.7852 8.76953 20.4375 8.69727 20.0703 8.63086C19.707 8.56055 19.3652 8.47266 19.0449 8.36719C18.3105 8.12891 17.7812 7.80664 17.457 7.40039C17.1367 6.99023 16.9766 6.48242 16.9766 5.87695C16.9766 5.06445 17.3398 4.40234 18.0664 3.89062C18.7969 3.375 19.7344 3.11719 20.8789 3.11719C21.4531 3.11719 22.0195 3.17383 22.5781 3.28711C23.1406 3.39648 23.627 3.53516 24.0371 3.70312V5.71289H23.7969C23.4453 5.43164 23.0137 5.19727 22.502 5.00977C21.9941 4.81836 21.4746 4.72266 20.9434 4.72266C20.7559 4.72266 20.5684 4.73633 20.3809 4.76367C20.1973 4.78711 20.0195 4.83398 19.8477 4.9043C19.6953 4.96289 19.5645 5.05273 19.4551 5.17383C19.3457 5.29102 19.291 5.42578 19.291 5.57812C19.291 5.80859 19.3789 5.98633 19.5547 6.11133C19.7305 6.23242 20.0625 6.34375 20.5508 6.44531C20.8711 6.51172 21.1777 6.57617 21.4707 6.63867C21.7676 6.70117 22.0859 6.78711 22.4258 6.89648C23.0938 7.11523 23.5859 7.41406 23.9023 7.79297C24.2227 8.16797 24.3828 8.65625 24.3828 9.25781ZM32.2402 12H25.9297V3.27539H32.2402V4.96289H28.168V6.46875H31.9473V8.15625H28.168V10.3125H32.2402V12ZM40.4258 12H34.1328V3.27539H36.3828V10.3125H40.4258V12ZM48.0957 12H41.7852V3.27539H48.0957V4.96289H44.0234V6.46875H47.8027V8.15625H44.0234V10.3125H48.0957V12ZM57.9219 12H55.7539L52.0508 6.01172V12H49.9883V3.27539H52.6777L55.8594 8.27344V3.27539H57.9219V12ZM64.8652 12H59.7559V10.4531H61.1855V4.82227H59.7559V3.27539H64.8652V4.82227H63.4355V10.4531H64.8652V12ZM74.3398 8.8418C74.3398 9.91992 74.0117 10.7461 73.3555 11.3203C72.6992 11.8945 71.7324 12.1816 70.4551 12.1816C69.1777 12.1816 68.2109 11.8945 67.5547 11.3203C66.9023 10.7461 66.5762 9.92188 66.5762 8.84766V3.27539H68.8379V8.71875C68.8379 9.32422 68.9648 9.77539 69.2188 10.0723C69.4727 10.3691 69.8848 10.5176 70.4551 10.5176C71.0176 10.5176 71.4277 10.375 71.6855 10.0898C71.9473 9.80469 72.0781 9.34766 72.0781 8.71875V3.27539H74.3398V8.8418ZM85.5957 12H83.3574V6.1582L81.7402 9.94922H80.1875L78.5703 6.1582V12H76.4492V3.27539H79.0625L81.0254 7.65234L82.9824 3.27539H85.5957V12Z" fill="white"/>
</svg>
